<svg xmlns="http://www.w3.org/2000/svg" width="16" height="16" viewBox="0 0 16 16">
    <path d="M10.5 6.5V5l-3-3.5H2.001C1.448 1.5 1 1.949 1 2.504v11.493a1 1 0 0 0 .999 1.004h7.503a1 1 0 0 0 .999-.995v-1.005h3.997c.83 0 1.503-.671 1.503-1.499V8.001c0-.828-.668-1.499-1.503-1.499h-3.997zM10 13v1.003a.499.499 0 0 1-.5.497H2a.501.501 0 0 1-.5-.498V2.497c0-.27.223-.498.498-.498H7v2.497c0 .56.447 1.003.999 1.003H10v1H6.003c-.83 0-1.503.671-1.503 1.499v3.501c0 .828.668 1.499 1.503 1.499H10zM7.5 2.25L9.85 5H7.998a.503.503 0 0 1-.498-.504V2.25zM5.997 7h8.505a1 1 0 0 1 .997.996v3.508a1 1 0 0 1-.997.996H5.997A1 1 0 0 1 5 11.504V7.996A1 1 0 0 1 5.997 7zM6 9V8h1.498a1 1 0 1 1 0 2H6.5v1.5H6V9zm.5-.5v1h1.001A.498.498 0 0 0 8 9c0-.276-.221-.5-.499-.5H6.5zm4.5 1V8h.5v3.5H11V10H9.5v1.5H9V8h.5v1.5H11zm1-.5V8h1.498a1 1 0 1 1 0 2H12.5v1.5H12V9zm.5-.5v1h1.001A.498.498 0 0 0 14 9c0-.276-.221-.5-.499-.5H12.5z"/>
</svg>
