<svg xmlns="http://www.w3.org/2000/svg" width="16" height="16" viewBox="0 0 16 16">
    <path d="M10.5 13v1.001a.998.998 0 0 1-.999.999H1.998a1 1 0 0 1-.999-1.004V2.503c0-.554.45-1.004 1.004-1.004h4.996V4.5c0 .556.449.999 1.003.999h2.497v1H6.002c-.83 0-1.503.671-1.503 1.499v3.501c0 .828.668 1.499 1.503 1.499h4.497zm-3-11.5v2.999A.5.5 0 0 0 7.995 5H10.5l-3-3.5zM5.997 7h8.505a1 1 0 0 1 .997.996v3.508a1 1 0 0 1-.997.996H5.997A1 1 0 0 1 5 11.504V7.996A1 1 0 0 1 5.997 7zM6 9v2.5h.5V10h.998a1 1 0 0 0 0-2H6v1zm.5-.5v1h1.001A.498.498 0 0 0 8 9c0-.276-.221-.5-.499-.5H6.5zm4.5 1H9.5V8H9v3.5h.5V10H11v1.5h.5V8H11v1.5zm1-.5v2.5h.5V10h.998a1 1 0 0 0 0-2H12v1zm.5-.5v1h1.001A.498.498 0 0 0 14 9c0-.276-.221-.5-.499-.5H12.5z"/>
</svg>
